# xmcd CD database file
#
# Track frame offsets:
#	150
#	50874
#	77961
#	105409
#	120212
#	146453
#	194412
#	210450
#	232826
#	260537
#
# Disc length: 3749 seconds
#
# Revision: 0
# Processed by: cddbd v1.5.1PL2 Copyright (c) Steve Scherf et al.
# Submitted via: CDex 1.51
#
DISCID=830ea30a
DTITLE=Jazz 89 KUVO - Live at the Oasis Vol. 8
DYEAR=2005
DGENRE=Jazz
TTITLE0=The Hilton Ruiz Quartet/ Unit Seven
TTITLE1=Rene Marie - Them There Eyes
TTITLE2=The Ken Walker Sextet - Velocity
TTITLE3=Allan Harris - You Go To My Head
TTITLE4=The Frank and Joe Show - Sway
TTITLE5=The Greg Gisbert Quartet - Three and One
TTITLE6=Sherry Williams and Pamela York - Do Nothing 'til You Hear From Me
TTITLE7=Bob Dorough - How Could A Man Take Such A Fall?
TTITLE8=Chuchito Valdes Afro-Cuban Ensemble - Descarga Para Telluride
TTITLE9=Rumbleseat with Mary Ann Moore - Fever
EXTD=YEAR: 2005
EXTT0=
EXTT1=
EXTT2=
EXTT3=
EXTT4=
EXTT5=
EXTT6=
EXTT7=
EXTT8=
EXTT9=
PLAYORDER=
